<svg width="45" height="45" viewBox="0 0 45 45" fill="none" xmlns="http://www.w3.org/2000/svg">
<path fill-rule="evenodd" clip-rule="evenodd" d="M14.7115 4.21875C15.4284 4.21875 16.0096 4.79992 16.0096 5.51683V6.8149H28.9904V5.51683C28.9904 4.79992 29.5716 4.21875 30.2884 4.21875C31.0052 4.21875 31.5865 4.79992 31.5865 5.51683V6.8149H35.4808C37.6314 6.8149 39.375 8.5584 39.375 10.7091V34.0745C39.375 36.2252 37.6314 37.9687 35.4808 37.9687H9.51923C7.3685 37.9687 5.625 36.2252 5.625 34.0745V10.7091C5.625 8.5584 7.3685 6.8149 9.51923 6.8149H13.4135V5.51683C13.4135 4.79992 13.9946 4.21875 14.7115 4.21875ZM28.9904 9.41105V10.7091C28.9904 11.426 29.5716 12.0072 30.2884 12.0072C31.0052 12.0072 31.5865 11.426 31.5865 10.7091V9.41105H35.4808C36.1975 9.41105 36.7788 9.99223 36.7788 10.7091V14.6034H8.22115V10.7091C8.22115 9.99223 8.80233 9.41105 9.51923 9.41105H13.4135V10.7091C13.4135 11.426 13.9946 12.0072 14.7115 12.0072C15.4284 12.0072 16.0096 11.426 16.0096 10.7091V9.41105H28.9904ZM8.22115 17.1995V34.0745C8.22115 34.7913 8.80233 35.3726 9.51923 35.3726H35.4808C36.1975 35.3726 36.7788 34.7913 36.7788 34.0745V17.1995H8.22115ZM21.2019 21.0937C21.2019 20.3768 21.7831 19.7957 22.5 19.7957C23.2169 19.7957 23.7981 20.3768 23.7981 21.0937C23.7981 21.8106 23.2169 22.3918 22.5 22.3918C21.7831 22.3918 21.2019 21.8106 21.2019 21.0937ZM27.6923 19.7957C26.9754 19.7957 26.3942 20.3768 26.3942 21.0937C26.3942 21.8106 26.9754 22.3918 27.6923 22.3918C28.4092 22.3918 28.9904 21.8106 28.9904 21.0937C28.9904 20.3768 28.4092 19.7957 27.6923 19.7957ZM31.5865 21.0937C31.5865 20.3768 32.1678 19.7957 32.8846 19.7957C33.6014 19.7957 34.1827 20.3768 34.1827 21.0937C34.1827 21.8106 33.6014 22.3918 32.8846 22.3918C32.1678 22.3918 31.5865 21.8106 31.5865 21.0937ZM32.8846 24.988C32.1678 24.988 31.5865 25.5691 31.5865 26.286C31.5865 27.0029 32.1678 27.5841 32.8846 27.5841C33.6014 27.5841 34.1827 27.0029 34.1827 26.286C34.1827 25.5691 33.6014 24.988 32.8846 24.988ZM26.3942 26.286C26.3942 25.5691 26.9754 24.988 27.6923 24.988C28.4092 24.988 28.9904 25.5691 28.9904 26.286C28.9904 27.0029 28.4092 27.5841 27.6923 27.5841C26.9754 27.5841 26.3942 27.0029 26.3942 26.286ZM22.5 24.988C21.7831 24.988 21.2019 25.5691 21.2019 26.286C21.2019 27.0029 21.7831 27.5841 22.5 27.5841C23.2169 27.5841 23.7981 27.0029 23.7981 26.286C23.7981 25.5691 23.2169 24.988 22.5 24.988ZM16.0096 26.286C16.0096 25.5691 16.5908 24.988 17.3077 24.988C18.0246 24.988 18.6058 25.5691 18.6058 26.286C18.6058 27.0029 18.0246 27.5841 17.3077 27.5841C16.5908 27.5841 16.0096 27.0029 16.0096 26.286ZM12.1154 24.988C11.3985 24.988 10.8173 25.5691 10.8173 26.286C10.8173 27.0029 11.3985 27.5841 12.1154 27.5841C12.8323 27.5841 13.4135 27.0029 13.4135 26.286C13.4135 25.5691 12.8323 24.988 12.1154 24.988ZM10.8173 31.4783C10.8173 30.7616 11.3985 30.1803 12.1154 30.1803C12.8323 30.1803 13.4135 30.7616 13.4135 31.4783C13.4135 32.1951 12.8323 32.7764 12.1154 32.7764C11.3985 32.7764 10.8173 32.1951 10.8173 31.4783ZM17.3077 30.1803C16.5908 30.1803 16.0096 30.7616 16.0096 31.4783C16.0096 32.1951 16.5908 32.7764 17.3077 32.7764C18.0246 32.7764 18.6058 32.1951 18.6058 31.4783C18.6058 30.7616 18.0246 30.1803 17.3077 30.1803ZM21.2019 31.4783C21.2019 30.7616 21.7831 30.1803 22.5 30.1803C23.2169 30.1803 23.7981 30.7616 23.7981 31.4783C23.7981 32.1951 23.2169 32.7764 22.5 32.7764C21.7831 32.7764 21.2019 32.1951 21.2019 31.4783ZM27.6923 30.1803C26.9754 30.1803 26.3942 30.7616 26.3942 31.4783C26.3942 32.1951 26.9754 32.7764 27.6923 32.7764C28.4092 32.7764 28.9904 32.1951 28.9904 31.4783C28.9904 30.7616 28.4092 30.1803 27.6923 30.1803Z" fill="#2B2626"/>
</svg>
