<svg width="43" height="43" viewBox="0 0 43 43" fill="none" xmlns="http://www.w3.org/2000/svg">
<path fill-rule="evenodd" clip-rule="evenodd" d="M14.1705 13.4112C14.1705 10.8438 14.8805 8.92377 16.0563 7.65772C17.2176 6.40724 18.9957 5.61931 21.5041 5.61931C24.0139 5.61931 25.7894 6.40569 26.948 7.65335C28.1212 8.9167 28.8295 10.8344 28.8295 13.4031V17.4102H14.1705V13.4112ZM11.2386 17.4102V13.4112C11.2386 10.3195 12.0988 7.61072 13.908 5.66262C15.7317 3.69894 18.3534 2.6875 21.5041 2.6875C24.6541 2.6875 27.2743 3.69613 29.0963 5.65837C30.9041 7.60495 31.7614 10.3122 31.7614 13.4031V17.4102H34.6932C36.3124 17.4102 37.625 18.7228 37.625 20.342V37.9329C37.625 39.5522 36.3124 40.8648 34.6932 40.8648H8.30682C6.68763 40.8648 5.375 39.5522 5.375 37.9329V20.342C5.375 18.7228 6.68763 17.4102 8.30682 17.4102H11.2386ZM8.30682 20.342H34.6932V37.9329H8.30682V20.342Z" fill="#2B2626"/>
</svg>
