<svg width="35" height="35" viewBox="0 0 35 35" fill="none" xmlns="http://www.w3.org/2000/svg">
<path fill-rule="evenodd" clip-rule="evenodd" d="M0.625 17.5001C0.625 8.18024 8.18021 0.625 17.5001 0.625C26.8198 0.625 34.375 8.18024 34.375 17.5001C34.375 26.8199 26.8198 34.3751 17.5001 34.3751C8.18021 34.3751 0.625 26.8199 0.625 17.5001ZM17.5001 3.14057C9.56952 3.14057 3.14057 9.56955 3.14057 17.5001C3.14057 21.1689 4.51648 24.5165 6.78049 27.0545C9.16883 23.7169 13.0798 21.5385 17.501 21.5385C21.9217 21.5385 25.8321 23.7164 28.2206 27.0535C30.4841 24.5154 31.8594 21.1683 31.8594 17.5001C31.8594 9.56955 25.4304 3.14057 17.5001 3.14057ZM26.3673 28.7953C24.4544 25.9345 21.1965 24.0541 17.501 24.0541C13.8051 24.0541 10.5469 25.935 8.63397 28.7964C11.0753 30.7151 14.154 31.8596 17.5001 31.8596C20.8466 31.8596 23.9258 30.7148 26.3673 28.7953ZM11.2776 14.8654C11.2776 11.4286 14.0636 8.64263 17.5003 8.64263C20.9371 8.64263 23.7231 11.4286 23.7231 14.8654C23.7231 18.3021 20.9371 21.0881 17.5003 21.0881C14.0636 21.0881 11.2776 18.3021 11.2776 14.8654ZM17.5003 11.1582C15.453 11.1582 13.7932 12.8179 13.7932 14.8654C13.7932 16.9128 15.453 18.5725 17.5003 18.5725C19.5478 18.5725 21.2075 16.9128 21.2075 14.8654C21.2075 12.8179 19.5478 11.1582 17.5003 11.1582Z" fill="#2B2626"/>
</svg>
