<svg width="24" height="24" viewBox="0 0 24 24" fill="none" xmlns="http://www.w3.org/2000/svg">
<path d="M12.0002 12.9931L6.9597 18.0336C6.82137 18.1719 6.6567 18.2406 6.4657 18.2398C6.27454 18.2388 6.10812 18.1675 5.96645 18.0258C5.82995 17.8841 5.76303 17.7206 5.7657 17.5353C5.7682 17.3501 5.8377 17.1893 5.9742 17.0528L11.007 11.9998L5.9742 6.94681C5.84404 6.81681 5.77737 6.65756 5.7742 6.46906C5.77104 6.28056 5.8377 6.11548 5.9742 5.97381C6.1107 5.83214 6.27287 5.75923 6.4607 5.75506C6.64854 5.75089 6.81487 5.81964 6.9597 5.96131L12.0002 11.0066L17.0455 5.96131C17.1806 5.82614 17.3437 5.75898 17.5347 5.75981C17.7259 5.76081 17.8939 5.83214 18.0387 5.97381C18.172 6.11548 18.2374 6.27898 18.2347 6.46431C18.2322 6.64948 18.1627 6.81031 18.0262 6.94681L12.9935 11.9998L18.0262 17.0528C18.1564 17.1828 18.223 17.3421 18.2262 17.5306C18.2294 17.7191 18.1627 17.8841 18.0262 18.0258C17.8897 18.1675 17.7275 18.2404 17.5397 18.2446C17.3519 18.2487 17.1871 18.1784 17.0455 18.0336L12.0002 12.9931Z" fill="black"/>
</svg>
