<svg width="24" height="24" viewBox="0 0 24 24" fill="none" xmlns="http://www.w3.org/2000/svg">
<path d="M13.2701 8.19214V4.52964C13.2701 4.28364 13.3506 4.08081 13.5116 3.92114C13.6726 3.76147 13.8742 3.68164 14.1164 3.68164H19.4761C19.7181 3.68164 19.919 3.76147 20.0786 3.92114C20.2383 4.08081 20.3181 4.28364 20.3181 4.52964V8.19214C20.3181 8.43831 20.2376 8.64122 20.0766 8.80089C19.9156 8.96056 19.7141 9.04039 19.4719 9.04039H14.1121C13.8701 9.04039 13.6693 8.96056 13.5096 8.80089C13.35 8.64122 13.2701 8.43831 13.2701 8.19214ZM3.68164 11.5796V4.52089C3.68164 4.28072 3.76214 4.08081 3.92314 3.92114C4.08414 3.76147 4.28572 3.68164 4.52789 3.68164H9.88764C10.1296 3.68164 10.3305 3.76147 10.4901 3.92114C10.6498 4.08097 10.7296 4.28097 10.7296 4.52114V11.5799C10.7296 11.8201 10.6491 12.02 10.4881 12.1796C10.3271 12.3393 10.1256 12.4191 9.88339 12.4191H4.52364C4.28164 12.4191 4.08081 12.3392 3.92114 12.1794C3.76147 12.0197 3.68164 11.8198 3.68164 11.5796ZM13.2701 19.4786V12.4199C13.2701 12.1797 13.3506 11.9798 13.5116 11.8201C13.6726 11.6605 13.8742 11.5806 14.1164 11.5806H19.4761C19.7181 11.5806 19.919 11.6606 20.0786 11.8204C20.2383 11.9801 20.3181 12.18 20.3181 12.4201V19.4789C20.3181 19.7191 20.2376 19.919 20.0766 20.0786C19.9156 20.2383 19.7141 20.3181 19.4719 20.3181H14.1121C13.8701 20.3181 13.6693 20.2383 13.5096 20.0786C13.35 19.9188 13.2701 19.7188 13.2701 19.4786ZM3.68164 19.4701V15.8076C3.68164 15.5615 3.76214 15.3586 3.92314 15.1989C4.08414 15.0392 4.28572 14.9594 4.52789 14.9594H9.88764C10.1296 14.9594 10.3305 15.0392 10.4901 15.1989C10.6498 15.3586 10.7296 15.5615 10.7296 15.8076V19.4701C10.7296 19.7161 10.6491 19.919 10.4881 20.0786C10.3271 20.2383 10.1256 20.3181 9.88339 20.3181H4.52364C4.28164 20.3181 4.08081 20.2383 3.92114 20.0786C3.76147 19.919 3.68164 19.7161 3.68164 19.4701ZM5.08064 11.0201H9.33064V5.08064H5.08064V11.0201ZM14.6691 18.9191H18.9191V12.9796H14.6691V18.9191ZM14.6691 7.64139H18.9191V5.08064H14.6691V7.64139ZM5.08064 18.9191H9.33064V16.3584H5.08064V18.9191Z" fill="black"/>
</svg>
