<svg width="24" height="24" viewBox="0 0 24 24" fill="none" xmlns="http://www.w3.org/2000/svg">
<path d="M6.08064 18.919H9.34614V13.8603C9.34614 13.6228 9.42939 13.4208 9.59589 13.2543C9.76239 13.0878 9.96439 13.0045 10.2019 13.0045H13.8026C14.0365 13.0045 14.2368 13.0878 14.4036 13.2543C14.5703 13.4208 14.6536 13.6228 14.6536 13.8603V18.919H17.9191V10.1723C17.9191 10.1209 17.9079 10.0744 17.8854 10.0328C17.8631 9.99109 17.8326 9.95426 17.7941 9.92226L12.1826 5.70551C12.1313 5.66067 12.0704 5.63826 11.9999 5.63826C11.9294 5.63826 11.8685 5.66067 11.8171 5.70551L6.20564 9.92226C6.16714 9.95426 6.13672 9.99109 6.11439 10.0328C6.09189 10.0744 6.08064 10.1209 6.08064 10.1723V18.919ZM4.68164 18.919V10.1738C4.68164 9.90042 4.74031 9.64442 4.85764 9.40576C4.97481 9.16709 5.14372 8.96801 5.36439 8.80851L10.9759 4.58051C11.2796 4.35301 11.6207 4.23926 11.9994 4.23926C12.3779 4.23926 12.7194 4.35301 13.0239 4.58051L18.6354 8.80851C18.8561 8.96801 19.025 9.16709 19.1421 9.40576C19.2595 9.64442 19.3181 9.90042 19.3181 10.1738V18.919C19.3181 19.3002 19.1803 19.6287 18.9046 19.9045C18.6288 20.1802 18.3003 20.318 17.9191 20.318H14.1104C13.8729 20.318 13.6709 20.2348 13.5044 20.0683C13.3379 19.9018 13.2546 19.6998 13.2546 19.4623V14.4035H10.7451V19.4623C10.7451 19.6998 10.6618 19.9018 10.4951 20.0683C10.3285 20.2348 10.1283 20.318 9.89464 20.318H6.07864C5.69897 20.318 5.37122 20.1802 5.09539 19.9045C4.81956 19.6287 4.68164 19.3002 4.68164 18.919Z" fill="black"/>
</svg>
