<svg width="24" height="24" viewBox="0 0 24 24" fill="none" xmlns="http://www.w3.org/2000/svg">
<path d="M5.4089 20.3991C4.9349 20.3991 4.5319 20.2331 4.1999 19.9011C3.86807 19.5693 3.70215 19.1664 3.70215 18.6924V5.4089C3.70215 4.9349 3.86807 4.5319 4.1999 4.1999C4.5319 3.86806 4.9349 3.70215 5.4089 3.70215H11.3329C11.5239 3.70215 11.6878 3.77056 11.8246 3.9074C11.9615 4.04423 12.0299 4.20815 12.0299 4.39915C12.0299 4.59348 11.9615 4.75907 11.8246 4.8959C11.6878 5.03273 11.5239 5.10115 11.3329 5.10115H5.4089C5.3319 5.10115 5.26132 5.13315 5.19715 5.19715C5.13315 5.26131 5.10115 5.3319 5.10115 5.4089V18.6924C5.10115 18.7694 5.13315 18.8399 5.19715 18.9039C5.26132 18.9681 5.3319 19.0001 5.4089 19.0001H11.3329C11.5239 19.0001 11.6878 19.0686 11.8246 19.2054C11.9615 19.3422 12.0299 19.5061 12.0299 19.6971C12.0299 19.8915 11.9615 20.0571 11.8246 20.1939C11.6878 20.3307 11.5239 20.3991 11.3329 20.3991H5.4089ZM17.6099 12.7501H9.8589C9.66457 12.7501 9.49898 12.6817 9.36215 12.5449C9.22532 12.4081 9.1569 12.2425 9.1569 12.0481C9.1569 11.8571 9.22532 11.6932 9.36215 11.5564C9.49898 11.4196 9.66457 11.3511 9.8589 11.3511H17.6099L15.7036 9.44515C15.5673 9.31198 15.4976 9.15082 15.4944 8.96165C15.4912 8.77265 15.5621 8.60681 15.7069 8.46415C15.8486 8.32148 16.0133 8.24965 16.2011 8.24865C16.389 8.24781 16.5566 8.3194 16.7039 8.4634L19.6876 11.4474C19.8606 11.6204 19.9471 11.8222 19.9471 12.0529C19.9471 12.2836 19.861 12.4836 19.6886 12.6531L16.6971 15.6444C16.5523 15.7861 16.387 15.8559 16.2011 15.8539C16.0153 15.8521 15.8506 15.7803 15.7069 15.6386C15.5621 15.495 15.4909 15.3297 15.4934 15.1429C15.4961 14.9561 15.5676 14.7907 15.7081 14.6469L17.6099 12.7501Z" fill="black"/>
</svg>
