<svg width="24" height="24" viewBox="0 0 24 24" fill="none" xmlns="http://www.w3.org/2000/svg">
<path d="M4.4039 17.4731C4.21006 17.4731 4.04465 17.4046 3.90765 17.2676C3.77065 17.1304 3.70215 16.9648 3.70215 16.7708C3.70215 16.58 3.77065 16.4162 3.90765 16.2793C4.04465 16.1425 4.21006 16.0741 4.4039 16.0741H19.6011C19.7918 16.0741 19.9556 16.1427 20.0926 16.2798C20.2296 16.4168 20.2981 16.5808 20.2981 16.7716C20.2981 16.9656 20.2296 17.131 20.0926 17.2678C19.9556 17.4047 19.7918 17.4731 19.6011 17.4731H4.4039ZM4.4039 12.6896C4.21006 12.6896 4.04465 12.621 3.90765 12.4838C3.77065 12.3468 3.70215 12.1813 3.70215 11.9873C3.70215 11.7965 3.77065 11.6327 3.90765 11.4958C4.04465 11.359 4.21006 11.2906 4.4039 11.2906H19.6011C19.7918 11.2906 19.9556 11.3591 20.0926 11.4961C20.2296 11.6333 20.2981 11.7972 20.2981 11.9878C20.2981 12.1818 20.2296 12.3473 20.0926 12.4841C19.9556 12.6211 19.7918 12.6896 19.6011 12.6896H4.4039ZM4.4039 7.90584C4.21006 7.90584 4.04465 7.83734 3.90765 7.70034C3.77065 7.56317 3.70215 7.39759 3.70215 7.20359C3.70215 7.01275 3.77065 6.84892 3.90765 6.71208C4.04465 6.57525 4.21006 6.50684 4.4039 6.50684H19.6011C19.7918 6.50684 19.9556 6.57534 20.0926 6.71234C20.2296 6.8495 20.2981 7.0135 20.2981 7.20434C20.2981 7.39834 20.2296 7.56375 20.0926 7.70059C19.9556 7.83742 19.7918 7.90584 19.6011 7.90584H4.4039Z" fill="black"/>
</svg>
