<svg width="24" height="24" viewBox="0 0 24 24" fill="none" xmlns="http://www.w3.org/2000/svg">
<path d="M5.38614 20.3181C4.91364 20.3181 4.51147 20.1521 4.17964 19.8201C3.84764 19.4883 3.68164 19.0861 3.68164 18.6136V5.38614C3.68164 4.91364 3.84764 4.51147 4.17964 4.17964C4.51147 3.84764 4.91364 3.68164 5.38614 3.68164H14.9999C15.2289 3.68164 15.4491 3.72631 15.6606 3.81564C15.8723 3.90481 16.0569 4.02906 16.2144 4.18839L19.8114 7.78539C19.9707 7.94289 20.095 8.12747 20.1841 8.33914C20.2735 8.55064 20.3181 8.77089 20.3181 8.99989V18.6136C20.3181 19.0861 20.1521 19.4883 19.8201 19.8201C19.4883 20.1521 19.0861 20.3181 18.6136 20.3181H5.38614ZM5.38839 18.9191H18.6114C18.7012 18.9191 18.775 18.8903 18.8326 18.8326C18.8903 18.775 18.9191 18.7012 18.9191 18.6114V9.04039H15.8154C15.5762 9.04039 15.3738 8.95747 15.2081 8.79164C15.0423 8.62597 14.9594 8.42356 14.9594 8.18439V5.08064H5.38839C5.29856 5.08064 5.22481 5.10947 5.16714 5.16714C5.10947 5.22481 5.08064 5.29856 5.08064 5.38839V18.6114C5.08064 18.7012 5.10947 18.775 5.16714 18.8326C5.22481 18.8903 5.29856 18.9191 5.38839 18.9191ZM15.9519 16.3584C16.1424 16.3584 16.3062 16.29 16.4434 16.1531C16.5804 16.0163 16.6489 15.8516 16.6489 15.6589C16.6489 15.4664 16.5804 15.3017 16.4434 15.1649C16.3062 15.0279 16.1424 14.9594 15.9519 14.9594H8.05289C7.85856 14.9594 7.69297 15.028 7.55614 15.1651C7.41931 15.3023 7.35089 15.4661 7.35089 15.6566C7.35089 15.8508 7.41931 16.0163 7.55614 16.1531C7.69297 16.29 7.85856 16.3584 8.05289 16.3584H15.9519ZM11.3029 9.04039C11.4934 9.04039 11.6571 8.97189 11.7941 8.83489C11.9313 8.69806 11.9999 8.53339 11.9999 8.34089C11.9999 8.14822 11.9313 7.98347 11.7941 7.84664C11.6571 7.70981 11.4934 7.64139 11.3029 7.64139H8.05289C7.85856 7.64139 7.69297 7.70989 7.55614 7.84689C7.41931 7.98406 7.35089 8.14789 7.35089 8.33839C7.35089 8.53256 7.41931 8.69806 7.55614 8.83489C7.69297 8.97189 7.85856 9.04039 8.05289 9.04039H11.3029ZM15.9519 12.6969C16.1424 12.6969 16.3062 12.6293 16.4434 12.4941C16.5804 12.3588 16.6489 12.1941 16.6489 11.9999C16.6489 11.8057 16.5804 11.6402 16.4434 11.5034C16.3062 11.3664 16.1424 11.2979 15.9519 11.2979H8.05289C7.85856 11.2979 7.69297 11.3664 7.55614 11.5034C7.41931 11.6402 7.35089 11.8057 7.35089 11.9999C7.35089 12.1941 7.41931 12.3588 7.55614 12.4941C7.69297 12.6293 7.85856 12.6969 8.05289 12.6969H15.9519Z" fill="black"/>
</svg>
