<svg width="24" height="24" viewBox="0 0 24 24" fill="none" xmlns="http://www.w3.org/2000/svg">
<path d="M11.9999 11.7126C11.0592 11.7126 10.2576 11.3812 9.59489 10.7186C8.93222 10.0559 8.60089 9.25422 8.60089 8.31355C8.60089 7.37288 8.93222 6.57122 9.59489 5.90855C10.2576 5.24588 11.0592 4.91455 11.9999 4.91455C12.9406 4.91455 13.7422 5.24588 14.4049 5.90855C15.0676 6.57122 15.3989 7.37288 15.3989 8.31355C15.3989 9.25422 15.0676 10.0559 14.4049 10.7186C13.7422 11.3812 12.9406 11.7126 11.9999 11.7126ZM4.68164 17.6271V16.942C4.68164 16.4656 4.80914 16.0275 5.06414 15.6278C5.31931 15.2281 5.66664 14.9194 6.10614 14.7016C7.08297 14.2304 8.06256 13.8748 9.04489 13.6348C10.0271 13.395 11.0121 13.2751 12.0001 13.2751C12.988 13.2751 13.9734 13.395 14.9564 13.6348C15.9392 13.8745 16.9187 14.23 17.8949 14.7013C18.3341 14.9191 18.6811 15.228 18.9359 15.6278C19.1907 16.0275 19.3181 16.4655 19.3181 16.9418V17.6271C19.3181 18.0211 19.1803 18.3559 18.9046 18.6316C18.6288 18.9074 18.2939 19.0453 17.8999 19.0453H6.09989C5.70589 19.0453 5.37097 18.9074 5.09514 18.6316C4.81947 18.3559 4.68164 18.0211 4.68164 17.6271ZM6.08064 17.6463H17.9191V16.9446C17.9191 16.7381 17.8605 16.5481 17.7431 16.3746C17.6258 16.2012 17.464 16.0585 17.2576 15.9463C16.4003 15.527 15.533 15.2101 14.6556 14.9958C13.7781 14.7813 12.8927 14.6741 11.9994 14.6741C11.1001 14.6741 10.2131 14.7813 9.33864 14.9958C8.46414 15.2101 7.60031 15.527 6.74714 15.9463C6.53747 16.0585 6.37397 16.2016 6.25664 16.3756C6.13931 16.5496 6.08064 16.7388 6.08064 16.9433V17.6463ZM11.9999 10.3135C12.5499 10.3135 13.0207 10.1177 13.4124 9.72605C13.8041 9.33438 13.9999 8.86355 13.9999 8.31355C13.9999 7.76355 13.8041 7.29272 13.4124 6.90105C13.0207 6.50938 12.5499 6.31355 11.9999 6.31355C11.4499 6.31355 10.9791 6.50938 10.5874 6.90105C10.1957 7.29272 9.99989 7.76355 9.99989 8.31355C9.99989 8.86355 10.1957 9.33438 10.5874 9.72605C10.9791 10.1177 11.4499 10.3135 11.9999 10.3135Z" fill="black"/>
</svg>
