<svg width="24" height="24" viewBox="0 0 24 24" fill="none" xmlns="http://www.w3.org/2000/svg">
<path d="M10.7716 21.2979C10.4977 21.2979 10.2583 21.2062 10.0533 21.0229C9.84814 20.8396 9.72697 20.6136 9.6898 20.3451L9.4253 18.3201C9.15414 18.2251 8.86647 18.0948 8.5623 17.9291C8.25814 17.7635 7.99514 17.5883 7.77331 17.4036L5.9118 18.1806C5.65664 18.2921 5.40147 18.3035 5.1463 18.2146C4.89097 18.1256 4.69164 17.9631 4.5483 17.7269L3.2878 15.5586C3.1443 15.322 3.10172 15.0701 3.16005 14.8031C3.21839 14.5363 3.35805 14.3151 3.57905 14.1394L5.21855 12.9056C5.19239 12.7625 5.17522 12.62 5.16705 12.4781C5.15905 12.3363 5.15505 12.1801 5.15505 12.0094C5.15505 11.8806 5.16114 11.7394 5.1733 11.5859C5.18564 11.4324 5.2033 11.255 5.2263 11.0536L3.5993 9.84789C3.37814 9.67689 3.23797 9.45722 3.1788 9.18889C3.11947 8.92056 3.16322 8.66397 3.31005 8.41914L4.5483 6.29214C4.69347 6.06231 4.89455 5.90131 5.15155 5.80914C5.40839 5.71714 5.66439 5.72531 5.91955 5.83364L7.79656 6.62114C8.02406 6.43331 8.27597 6.25939 8.5523 6.09939C8.82847 5.93956 9.1163 5.80481 9.4158 5.69514L9.6898 3.63464C9.72697 3.36597 9.85022 3.13997 10.0596 2.95664C10.2687 2.77331 10.5102 2.68164 10.7841 2.68164H13.2291C13.5029 2.68164 13.7423 2.77331 13.9473 2.95664C14.1525 3.13997 14.2752 3.36597 14.3156 3.63464L14.5756 5.67439C14.8889 5.79006 15.1691 5.92281 15.4161 6.07264C15.6632 6.22231 15.9106 6.40514 16.1581 6.62114L18.1033 5.83364C18.3551 5.72531 18.6087 5.71714 18.8641 5.80914C19.1192 5.90131 19.3201 6.06231 19.4666 6.29214L20.7051 8.42864C20.8487 8.66847 20.8893 8.92172 20.8268 9.18839C20.7643 9.45489 20.6241 9.67472 20.4061 9.84789L18.6878 11.1229C18.7205 11.2844 18.7392 11.4299 18.7441 11.5594C18.7489 11.6889 18.7513 11.8357 18.7513 11.9999C18.7513 12.1544 18.7481 12.2999 18.7416 12.4364C18.7352 12.5731 18.7147 12.7288 18.6801 12.9036L20.3493 14.1394C20.5705 14.3157 20.7131 14.5372 20.7773 14.8039C20.8413 15.0704 20.8016 15.322 20.6581 15.5586L19.4166 17.7171C19.2682 17.9535 19.0641 18.1161 18.8041 18.2049C18.5439 18.2939 18.2862 18.2826 18.0311 18.1709L16.1581 17.3739C15.9292 17.5662 15.6914 17.7358 15.4446 17.8826C15.1977 18.0293 14.9096 18.1693 14.5801 18.3026L14.3156 20.3451C14.2752 20.6136 14.1525 20.8396 13.9473 21.0229C13.7423 21.2062 13.5029 21.2979 13.2291 21.2979H10.7716ZM11.0076 19.8989H12.9456L13.3176 17.2076C13.8144 17.0743 14.2639 16.8903 14.6661 16.6556C15.0684 16.421 15.4616 16.1107 15.8456 15.7249L18.3426 16.7894L19.3148 15.1094L17.1253 13.4749C17.2003 13.2159 17.2536 12.966 17.2853 12.7251C17.3171 12.4841 17.3331 12.2424 17.3331 11.9999C17.3331 11.7447 17.3192 11.5041 17.2916 11.2779C17.2641 11.0516 17.2086 10.807 17.1253 10.5441L19.3341 8.87014L18.3821 7.19039L15.8283 8.27014C15.5256 7.93931 15.1406 7.63672 14.6733 7.36239C14.206 7.08806 13.7509 6.89639 13.3081 6.78739L12.9943 4.08064H11.0158L10.6973 6.77014C10.1705 6.89897 9.70789 7.07556 9.30955 7.29989C8.91105 7.52422 8.50639 7.83931 8.09555 8.24514L5.6233 7.19039L4.64655 8.87014L6.79831 10.4671C6.71497 10.7178 6.65664 10.968 6.62331 11.2176C6.58997 11.4673 6.57331 11.7268 6.57331 11.9961C6.57331 12.2466 6.58789 12.4927 6.61706 12.7344C6.64622 12.9761 6.69931 13.2296 6.7763 13.4951L4.64655 15.1094L5.6253 16.7894L8.0783 15.7394C8.4763 16.1374 8.8833 16.4541 9.2993 16.6894C9.7153 16.9246 10.1781 17.1046 10.6878 17.2296L11.0076 19.8989ZM11.9696 14.8989C12.7709 14.8989 13.4534 14.6166 14.0171 14.0519C14.5809 13.4874 14.8628 12.803 14.8628 11.9986C14.8628 11.1943 14.5806 10.5103 14.0163 9.94664C13.4518 9.38281 12.7676 9.10089 11.9638 9.10089C11.1535 9.10089 10.4677 9.38322 9.90655 9.94789C9.34539 10.5124 9.0648 11.1968 9.0648 12.0011C9.0648 12.8055 9.34539 13.4895 9.90655 14.0531C10.4677 14.617 11.1554 14.8989 11.9696 14.8989Z" fill="black"/>
</svg>
