<svg width="37" height="37" viewBox="0 0 37 37" fill="none" xmlns="http://www.w3.org/2000/svg">
<path fill-rule="evenodd" clip-rule="evenodd" d="M18.4999 2.52271C9.67597 2.52271 2.52271 9.67596 2.52271 18.4999C2.52271 27.3238 9.67597 34.4771 18.4999 34.4771C27.324 34.4771 34.4773 27.3238 34.4773 18.4999C34.4773 9.67596 27.324 2.52271 18.4999 2.52271ZM0 18.4999C0 8.28269 8.2827 0 18.4999 0C28.7171 0 37 8.28269 37 18.4999C37 28.7172 28.7171 36.9998 18.4999 36.9998C8.2827 36.9998 0 28.7172 0 18.4999Z" fill="#2B2626"/>
<path fill-rule="evenodd" clip-rule="evenodd" d="M35.3178 19.6211H1.68164V17.3787H35.3178V19.6211Z" fill="#2B2626"/>
<path fill-rule="evenodd" clip-rule="evenodd" d="M17.3785 35.3181V1.68187H19.6209V35.3181H17.3785ZM26.5586 18.4999C26.5586 12.4097 24.3684 6.38473 20.0747 2.40102L21.4093 0.962646C26.1791 5.38797 28.5207 11.9766 28.5207 18.4999C28.5207 25.0233 26.1791 31.612 21.4093 36.0374L20.0747 34.5989C24.3684 30.6152 26.5586 24.5902 26.5586 18.4999ZM8.68848 18.5C8.68848 11.9861 10.9538 5.40087 15.5783 0.973242L16.9352 2.39051C12.7767 6.37197 10.6506 12.4003 10.6506 18.5C10.6506 24.5997 12.7768 30.6281 16.9352 34.6095L15.5783 36.0267C10.9539 31.5991 8.6885 25.0139 8.68848 18.5Z" fill="#2B2626"/>
<path fill-rule="evenodd" clip-rule="evenodd" d="M18.4995 8.57153C24.5801 8.57153 30.7637 9.69594 34.955 12.0374C35.4282 12.3016 35.5975 12.8993 35.3332 13.3723C35.0691 13.8453 34.4712 14.0146 33.9984 13.7504C30.2146 11.6367 24.4084 10.5336 18.4995 10.5336C12.5906 10.5336 6.78443 11.6367 3.00069 13.7504C2.52765 14.0146 1.92999 13.8453 1.66575 13.3723C1.40154 12.8993 1.57078 12.3016 2.04382 12.0374C6.23543 9.69594 12.4188 8.57153 18.4995 8.57153ZM18.4995 27.8899C24.5801 27.8899 30.7637 26.7654 34.955 24.424C35.4282 24.1598 35.5975 23.5621 35.3332 23.0891C35.0691 22.616 34.4712 22.4468 33.9984 22.711C30.2146 24.8246 24.4084 25.9278 18.4995 25.9278C12.5906 25.9278 6.78443 24.8246 3.00069 22.711C2.52765 22.4468 1.92999 22.616 1.66575 23.0891C1.40154 23.5621 1.57078 24.1598 2.04382 24.424C6.23543 26.7654 12.4188 27.8899 18.4995 27.8899Z" fill="#2B2626"/>
</svg>
